<?xml version="1.0" encoding="UTF-8"?>
<svg width="14px" height="14px" viewBox="0 0 14 14" version="1.1" xmlns="http://www.w3.org/2000/svg" xmlns:xlink="http://www.w3.org/1999/xlink">
    <!-- Generator: Sketch 63 (92445) - https://sketch.com -->
    <title>icon/删除</title>
    <desc>Created with Sketch.</desc>
    <defs>
        <rect id="path-1" x="0" y="0" width="14" height="14"></rect>
    </defs>
    <g id="test" stroke="none" stroke-width="1" fill="none" fill-rule="evenodd">
        <g id="4.0系统用户管理" transform="translate(-1036.000000, -593.000000)">
            <g id="操作图标备份-10" transform="translate(920.000000, 576.000000)">
                <g id="删除icon" transform="translate(116.000000, 17.000000)">
                    <mask id="mask-2" fill="white">
                        <use xlink:href="#path-1"></use>
                    </mask>
                    <use id="蒙版" fill="#D8D8D8" opacity="0" xlink:href="#path-1"></use>
                    <path d="M1.84131901,13.8164279 C1.80818291,13.7886501 1.7744551,13.752539 1.74131901,13.7164279 C1.77800539,13.752539 1.80818291,13.7886501 1.84131901,13.8164279 Z M1.69054886,13.7311438 C1.65632664,13.698976 1.62254886,13.6668081 1.59054886,13.6311438 C1.6221044,13.6668081 1.65632664,13.698976 1.69054886,13.7311438 Z M13.8367394,2.1589066 C13.7307435,2.05291062 13.5766229,1.9938209 13.4270711,1.9938209 L10.5517779,1.9938209 L10.5517779,1.09803305 C10.5517779,0.492211212 10.0595666,-7.10542736e-15 9.4537448,-7.10542736e-15 L4.54564364,-7.10542736e-15 C3.9398218,-7.10542736e-15 3.44761059,0.492211212 3.44761059,1.09803305 L3.44761059,1.9938209 L0.557697237,1.99382092 C0.250978984,1.99382092 0,2.24297239 0,2.55151815 C0,2.86006392 0.249151475,3.10921539 0.557697237,3.10921539 L1.04990845,3.10921539 L1.04990845,12.8148529 C1.04990845,13.4206748 1.54211966,13.912886 2.1479415,13.912886 L12.0080042,13.912886 C12.6138261,13.912886 13.1060373,13.4206748 13.1060373,12.8148529 L13.1060373,3.10921538 L13.4267665,3.10921538 C13.7334847,3.10921538 14,2.8600639 14,2.55151814 C14.0003022,2.40348928 13.9427354,2.26490258 13.8367394,2.1589066 Z M4.54381613,1.1013835 L9.44887142,1.1013835 L9.44887142,2.00326308 L4.54381613,2.00326308 L4.54381613,1.1013835 Z M12.0064813,12.81333 L2.1479415,12.81333 L2.1479415,3.10921538 L3.56853128,3.10921538 L12.0061767,3.10921538 L12.0061767,12.81333 L12.0064813,12.81333 Z M6.99238414,4.97815597 C6.68231544,4.97815597 6.43164105,5.22883037 6.43164105,5.53889906 L6.43164105,10.741535 C6.43164105,11.0516037 6.68231546,11.3022781 6.99238414,11.3022781 C7.30245283,11.3022781 7.55312725,11.0516037 7.55312725,10.741535 L7.55312725,5.53889906 C7.55312725,5.22913495 7.30245285,4.97815597 6.99238414,4.97815597 Z M3.9550511,4.97815597 C3.64498239,4.97815597 3.39430801,5.22883037 3.39430801,5.53889906 L3.39430801,10.741535 C3.39430801,11.0516037 3.64498241,11.3022781 3.9550511,11.3022781 C4.26511979,11.3022781 4.51579421,11.0516037 4.51579421,10.741535 L4.51579421,5.53889906 C4.51579421,5.22913495 4.26481522,4.97815597 3.9550511,4.97815597 Z M9.99864941,4.97815597 C9.68858071,4.97815597 9.43790632,5.22883037 9.43790632,5.53889906 L9.43790632,10.741535 C9.43790632,11.0516037 9.68858072,11.3022781 9.99864941,11.3022781 C10.3087181,11.3022781 10.5593925,11.0516037 10.5593925,10.741535 L10.5593925,5.53889906 C10.5593925,5.22913495 10.3087181,4.97815597 9.99864941,4.97815597 Z" fill="#EF4642" fill-rule="nonzero" mask="url(#mask-2)"></path>
                </g>
            </g>
        </g>
    </g>
</svg>