<?xml version="1.0" encoding="UTF-8"?>
<svg width="14px" height="14px" viewBox="0 0 14 14" version="1.1" xmlns="http://www.w3.org/2000/svg" xmlns:xlink="http://www.w3.org/1999/xlink">
    <!-- Generator: Sketch 63 (92445) - https://sketch.com -->
    <title>icon/编辑</title>
    <desc>Created with Sketch.</desc>
    <defs>
        <rect id="path-1" x="0" y="0" width="14" height="14"></rect>
    </defs>
    <g id="test" stroke="none" stroke-width="1" fill="none" fill-rule="evenodd">
        <g id="4.0系统用户管理" transform="translate(-1005.000000, -593.000000)">
            <g id="操作图标备份-10" transform="translate(920.000000, 576.000000)">
                <g id="编辑icon" transform="translate(85.000000, 17.000000)">
                    <mask id="mask-2" fill="white">
                        <use xlink:href="#path-1"></use>
                    </mask>
                    <use id="蒙版" fill="#D8D8D8" opacity="0" xlink:href="#path-1"></use>
                    <path d="M13.4375,12.875 L0.5625,12.875 C0.2515625,12.875 0,13.1265625 0,13.4375 C0,13.7484375 0.2515625,14 0.5625,14 L13.4375,14 C13.7484375,14 14,13.7484375 14,13.4375 C14,13.1265625 13.7484375,12.875 13.4375,12.875 Z M2.625,11.03125 L6.3046875,9.4734375 C6.3640625,9.4484375 6.4171875,9.4125 6.4640625,9.3671875 L12.6703125,3.1609375 C13.109375,2.721875 13.1125,2.00625 12.6734375,1.5671875 L11.434375,0.328125 C10.9953125,-0.1109375 10.2796875,-0.1078125 9.840625,0.33125 L3.634375,6.5375 C3.5890625,6.5828125 3.553125,6.6375 3.528125,6.696875 L1.96875,10.375 C1.88125,10.58125 1.9421875,10.7890625 2.075,10.9234375 C2.2078125,11.0578125 2.4171875,11.11875 2.625,11.03125 Z M10.6359375,1.1265625 L10.6390625,1.1234375 L11.8765625,2.3609375 L11.8734375,2.3640625 L10.9046875,3.3328125 L9.6671875,2.0953125 L10.6359375,1.1265625 Z M4.515625,7.246875 L8.871875,2.890625 L10.109375,4.128125 L5.753125,8.484375 L3.60625,9.39375 L4.515625,7.246875 Z" fill="#FF7635" fill-rule="nonzero" mask="url(#mask-2)"></path>
                </g>
            </g>
        </g>
    </g>
</svg>